<?xml version="1.0" encoding="utf-8"?>
<!-- Generator: Adobe Illustrator 26.1.0, SVG Export Plug-In . SVG Version: 6.00 Build 0)  -->
<svg version="1.1" id="Layer_1" xmlns="http://www.w3.org/2000/svg" xmlns:xlink="http://www.w3.org/1999/xlink" x="0px" y="0px"
	 viewBox="0 0 158 315" style="enable-background:new 0 0 158 315;" xml:space="preserve">
<style type="text/css">
	.st0{fill:#8C5454;}
	.st1{fill:url(#SVGID_1_);}
	.st2{fill:url(#SVGID_00000067937605183614206080000014867305557574850957_);}
	.st3{fill:#EC7B87;}
	.st4{fill:#FCB451;}
	.st5{fill:#F7923F;}
	.st6{fill:#FFCD79;}
	.st7{fill:#77464B;}
	.st8{fill:url(#SVGID_00000105399321923140500690000013043219056433858233_);}
	.st9{fill:url(#SVGID_00000000195747834999311240000008788100502718666393_);}
	.st10{fill:url(#SVGID_00000152228774962955811770000014540427441955548333_);}
	.st11{fill:#F59293;}
	.st12{fill:#8366AD;}
	.st13{fill:#745599;}
	.st14{fill:#67444D;}
	.st15{fill:url(#SVGID_00000137819915103027683380000018204297801542348720_);}
	.st16{fill:url(#SVGID_00000029733820737477880260000014120924812382366639_);}
	.st17{fill:#6C4A66;}
	.st18{fill:#FFF4EB;}
	.st19{fill:#84A8D8;}
	.st20{fill:#6C8FC9;}
	.st21{fill:#B5D4EF;}
</style>
<g>
	<g>
		<path class="st0" d="M70.8,42.1c-1.1,1-1.6,2.2-1.4,3.7c0.4,2.7,2.5,4.4,2.3,7.4c0,0.4,0.5,0.4,0.6,0.1c0.5-1.3,0.2-2.3-0.4-3.6
			c-0.4-0.8-0.9-1.6-1.3-2.4c-0.8-1.8-0.6-3.4,0.5-5C71.3,42.2,71,42,70.8,42.1L70.8,42.1z"/>
		
			<linearGradient id="SVGID_1_" gradientUnits="userSpaceOnUse" x1="47.4163" y1="175.4296" x2="47.4163" y2="249.0478" gradientTransform="matrix(1 0 0 -1 0 315)">
			<stop  offset="0" style="stop-color:#F9B3AA"/>
			<stop  offset="1" style="stop-color:#F59097"/>
		</linearGradient>
		<path class="st1" d="M61.1,81.3c-2.4,2.8-5.6,10.3-6.3,12s-4.8,8-6.6,13.4c0,0-2.1-2-6.5-4.4c-4.4-2.3-9.2-4.8-10.9-6.5l-4.4,5
			c0,0,7.5,12.3,12.1,17.1s11.8,6.8,14.3,6.6c2.6-0.2,10.2-5.1,14.5-14.9S61.1,81.3,61.1,81.3z"/>
		
			<linearGradient id="SVGID_00000041264822725774534150000001663616381691900842_" gradientUnits="userSpaceOnUse" x1="-74.3231" y1="6.9297" x2="-63.4225" y2="102.6644" gradientTransform="matrix(0.7131 -0.701 -0.701 -0.7131 121.1733 94.9302)">
			<stop  offset="0" style="stop-color:#F9B3AA"/>
			<stop  offset="1" style="stop-color:#F59097"/>
		</linearGradient>
		<path style="fill:url(#SVGID_00000041264822725774534150000001663616381691900842_);" d="M20,90.3c1.6,1.5,2.9,2.7,3.1,2.3
			c0.2-0.2-1.2-1.1-2.7-2.8c-1.8-2-3.4-3.8-2.5-4.6c0.6-0.5,2.2,1.7,4.1,3.3c1.6,1.4,3.9,4.1,4.8,3.5c0.7-0.5-0.2-4.7,1.5-4.8
			c1.3-0.1,0.5,6.1,2.4,8.6c1.1,1.5-2.9,6.1-4.1,5.3c-1.9-1.6-4.6-2.9-7-4.8c-1.9-1.5-3.8-4.8-3.2-5.3c0.6-0.5,1.8,1.2,2.8,2.3
			c1,1,1.4,1.2,1.6,1.1c0.2-0.2-1-1.2-2.6-3c-2.3-2.6-3.1-3.7-2.3-4.4C16.8,86.3,18.2,88.5,20,90.3z"/>
		<path class="st3" d="M53.3,123.2c-1.6,0.3-7.1-0.6-13-5C36,115,32,103.6,26.7,101.2c0,0,0,0,0,0.1c1.2,2,7.7,12.4,11.9,16.7
			c4.6,4.8,11.8,6.8,14.3,6.6c1.2-0.1,3.6-1.3,6.3-3.6l0,0c0,0,0.1-0.1,0.1-0.1c0.2-0.2,0.4-0.4,0.6-0.6c0.1-0.1,0.2-0.2,0.3-0.3
			c0.2-0.2,0.4-0.4,0.6-0.6c0.1-0.1,0.2-0.2,0.3-0.3c0.2-0.2,0.5-0.5,0.7-0.7c0.1-0.1,0.1-0.2,0.2-0.2c0.9-1,1.7-2.1,2.6-3.3v0
			c0.6-0.9,1.2-1.9,1.7-2.9c0-3.2,0.1-6.5,0.2-9.7c0.1-2.7,0.2-5.1,0.5-7.3c-1.1-3.8-4,1.7-6.4,9.9
			C60.2,114.5,56.8,122.6,53.3,123.2z"/>
		<path class="st4" d="M62.3,141.3c0,0-2.3,6.3-1.8,11.7c0.6,5.4,2.9,8.8,2.9,8.8s-3.9,6.7,2,15.6s21.8,13.3,29.9,20.9
			c0,0-3.6-2.1-3.9,1.3c-0.3,3.4,2.6,4.6,8.4,7.8s5.4,10.9,3.4,12.8s-3.1-1.6-5.4,1.3s0.6,9.1,5,12.4c4.4,3.3,6,8.6,5.4,10.6
			c0,0,3.7-2.8,2.7-8.6c-1-5.8-3.6-7-2.7-11.3c0.9-4.3,9.8-11.5,11.5-24.9c1.7-13.4-2.6-20.3-5-20.9c-2.4-0.6-2.6,2.1-2.6,2.1
			s-5.1-5.1-6.4-12.2c-1.3-7.1-0.2-19.6-4.8-27.8C96.6,132.8,62.3,141.3,62.3,141.3z"/>
		<path class="st5" d="M62.3,141.3c0,0-0.2,0.6-0.5,1.5c22.1,12.5,39.3,0.1,39.3,0.1c0-0.9-0.1-1.6-0.2-2.4
			C95.8,132.9,62.3,141.3,62.3,141.3z"/>
		<path class="st6" d="M82.8,172.5c-2.7-0.1-2.1,10.3,0,14.5c0,0,4.1,1.6,6.2,3.2c0,0-1.7-0.9-3.1-5.9
			C84.5,179.7,86,172.7,82.8,172.5z"/>
		<path class="st6" d="M79.5,185.1c-4.1-2.9-10.4-4.9-13-14.7c-2-7.7-1.1-21.6,6.4-20.6c5.3,0.7,5,6.9,5.1,17.2
			C78.2,175.5,78.6,182.2,79.5,185.1z"/>
		<path class="st5" d="M114.8,178.8c-2.4-0.6-2.6,2.1-2.6,2.1s-5.1-5.1-6.4-12.2c-1.3-7.1-0.2-19.6-4.8-27.8
			c-0.4-0.6-0.9-1.2-1.6-1.6l-10.3,5.6c7.8,11,3.7,19.4,7,33.4c2.7,11.6,13.1,13.6,13.1,13.6s0-8,5.1-7.9s6.3,15,1.9,24.1
			c-4.4,9.1-12.7,12.8-12.8,17.9c-0.1,6,10.4,9.1,4.8,18.6c0,0,3.7-2.8,2.7-8.6c-1-5.8-3.6-7-2.7-11.3c0.9-4.3,9.8-11.5,11.5-24.9
			C121.5,186.2,117.2,179.4,114.8,178.8z"/>
		<path class="st0" d="M95.5,60.4c3.1-2.6,7-21.9-1.2-22.4c-4.7-7.3-24.7-2.8-24.5,4.2c0.1,3.3,2.2,4,2.4,7.1
			c0.4,9.8,18.5,11.9,18.5,11.9L95.5,60.4z"/>
		<path class="st7" d="M98.5,41.9c-0.3,1.4-1.1,2.9-3.1,3.7c-4.8,1.9-7.5-0.5-7.5-0.5l-3.8,14.8c3.5,1,6.3,1.3,6.3,1.3l4.9-0.8
			C97.7,58.5,100.4,47.8,98.5,41.9z"/>
		
			<linearGradient id="SVGID_00000044163774183564932720000015012046034260334269_" gradientUnits="userSpaceOnUse" x1="-453.6496" y1="158.7095" x2="-453.6496" y2="255.5545" gradientTransform="matrix(0.9996 2.770000e-02 2.770000e-02 -0.9996 533.956 324.3295)">
			<stop  offset="0" style="stop-color:#F9B3AA"/>
			<stop  offset="1" style="stop-color:#F59097"/>
		</linearGradient>
		<path style="fill:url(#SVGID_00000044163774183564932720000015012046034260334269_);" d="M74.5,76.3c-3.9,2-9.4,1.4-13.4,5
			c0,0-1,15.2,0.1,17.8c0.8,1.9,1.9,2.6,1.9,2.6s0.1,10.3,0.2,13.4s0.7,12.3,0.3,15.4c0,0,20.8,5.7,35.8,1c0,0-0.2-3.6-0.6-6.8
			s-0.5-5.5-0.5-5.5s4.9-12.7,6.3-18.3c1.3-5.6,9-5.4,7.8-9.2c-2-6.3-5.1-9.5-8.1-11.2c-3.5-2-7.7-2.8-9.3-3.4l-1.6-0.4L74.5,76.3z"
			/>
		<path class="st3" d="M96.3,102.3c-3.8,1.7-13.5,0.1-13.5,0.1c2.7,2.8,9.6,3.9,9.6,3.9s-2.9,7.1-3.9,14.7c-0.5,4.1,0,12.3,0,12.3
			s6.3-0.1,11-1.9c0,0-0.2-3.6-0.6-6.8s-0.5-5.5-0.5-5.5s1.2-3,2.5-6.8c-3.3-4.3-2.3-9.2-0.6-14.1
			C100.3,98.2,100.1,100.7,96.3,102.3z"/>
		<path class="st3" d="M62.8,101.5c0.1,0.2,0.2,0.3,0.2,0.3s0.1,1.4,0.1,3.2c5.8,0.2,9.5-3.3,9.5-3.3
			C70,102.5,64.4,102.2,62.8,101.5z"/>
		<path class="st3" d="M94.6,99.4c0.1,0.5-0.5,1-1.3,1.1s-1.5-0.2-1.6-0.7s0.5-1,1.3-1.1C93.9,98.6,94.5,98.9,94.6,99.4z"/>
		<path class="st3" d="M66.4,99.6c-0.1,0.5-0.8,0.7-1.6,0.6c-0.8-0.2-1.3-0.7-1.2-1.2c0.1-0.5,0.8-0.7,1.6-0.6
			C65.9,98.6,66.5,99.1,66.4,99.6z"/>
		<path class="st3" d="M78.4,98.3c0,0-1.8,1.7-2.7,2.4c0,0,2.4-0.9,5,0.3C80.7,101,78.9,99.3,78.4,98.3z"/>
		
			<linearGradient id="SVGID_00000063595763336243705890000015957297025042898836_" gradientUnits="userSpaceOnUse" x1="389.9778" y1="163.7806" x2="389.9778" y2="259.4153" gradientTransform="matrix(-0.9933 -0.1159 0.1159 -0.9933 442.7641 360.7832)">
			<stop  offset="0" style="stop-color:#F9B3AA"/>
			<stop  offset="1" style="stop-color:#F59097"/>
		</linearGradient>
		<path style="fill:url(#SVGID_00000063595763336243705890000015957297025042898836_);" d="M90.9,62.9c0,0-0.5,3.3-0.4,7.3
			c0.1,4,2,6.5,5,7.5c0,0-3.1,4.9-13.1,4.6c-7.8-0.2-11.5-4.9-11.5-4.9c1.9-0.6,5.1-1.2,5.7-3.8c0.7-2.9-0.5-3.6-0.5-3.6l9.3-8.5
			L90.9,62.9z"/>
		<path class="st3" d="M90.5,70.2c-0.1-3.2,0.2-6,0.4-6.9l-8.5,1L76.2,70l0,0.2c0.3,0.2,1,1.1,0.4,3.5c-0.1,0.5-0.7,1.4-0.7,1.4
			s1.8,4.2,10,4.9c5.7,0.5,9.1-3,9.1-3C91.8,75.9,90.6,73.6,90.5,70.2z"/>
		<path class="st3" d="M106.5,82.5c-0.9-1-2.4-2-4-2.9c-3-1.3-6.2-2-7.5-2.5l-0.8-0.2c-0.1,0-0.9-0.3-1-0.3c0,0-5.1,10.8-6.8,23.3
			c-1.2,8.8-1.8,24.6-1.4,33.5c4.9,0,9.9-0.4,14.4-1.9c0,0,0-0.1,0-0.1c-0.5-4.2-1-9.6-1.1-12c0-0.1,0-0.2,0-0.2v0c0,0,0-0.1,0-0.1
			c0-1.7,1.4-5.1,2.4-7.8c0,0-3.5-5.6-2.5-12C100.5,84.8,106.5,82.5,106.5,82.5z"/>
		
			<linearGradient id="SVGID_00000099626722372274644430000001564929492182484623_" gradientUnits="userSpaceOnUse" x1="-354.8616" y1="-14.9095" x2="-362.0025" y2="32.0701" gradientTransform="matrix(0.9335 0.3416 0.3603 -0.9394 416.3286 181.1579)">
			<stop  offset="0" style="stop-color:#F9B4AB"/>
			<stop  offset="1" style="stop-color:#F59198"/>
		</linearGradient>
		<path style="fill:url(#SVGID_00000099626722372274644430000001564929492182484623_);" d="M92.8,57c-0.9,0.5-1.5,2.3-2.7,1.9
			c-0.8-0.3,0-3.5,0-6.5c0-5.7-1.8-9.5-7.2-10.3c-4.6-0.8-8.3,0.7-10.2,4.8c-0.6,1.4-1.2,5-1.2,10.5c0,3.1,0.6,8.3,2.4,12
			c1.9,4,8.6,4,12.2,1c2.1-1.7,3.3-3.8,4.4-6.7c3.1,0.7,5.1-1.3,5.4-3.3C96.2,58.3,95.1,56.2,92.8,57z"/>
		<path class="st3" d="M74.8,76c-3.5,2-8.3,1.8-12,4c-0.9,3.4-1.4,12.4-0.8,20.5c0,0,0,0,0,0c0.6,0.8,1.1,1.2,1.1,1.2
			s0.1,10.3,0.2,13.4c0,3.1,0.7,12.3,0.3,15.4c0,0,2.1,0.6,5.5,1.2c0.2-7.7,0.2-19.9,0.5-31.1C69.8,85,74.8,76,74.8,76z"/>
		<path class="st3" d="M91.8,59.6c-0.5,1-0.4,2.1,0.2,2.4c0.7,0.3,1.6-0.2,2.2-1.2c0.5-1,0.4-2.1-0.2-2.4
			C93.2,58.1,92.3,58.6,91.8,59.6z"/>
		<g>
			<path class="st0" d="M76.2,50c0.2,0.9-1,0.8-2.5,1.4c-1.4,0.6-2.2,1.7-2.4,1.1c-0.2-0.4-0.7-1.9,1.5-3C74.4,48.6,75.9,49,76.2,50
				z"/>
		</g>
		<g>
			<path class="st0" d="M84.8,52c1.9,0.8,2.7,1.7,3.2,1.3c0.5-0.4,1-2.2-2.4-3.7c-1.7-0.8-4-0.7-4.4,0.6C81,51.8,83.2,51.4,84.8,52z
				"/>
		</g>
		<path class="st3" d="M81,84.2c1,0,1.8-1.7,2.7-2.3c-1.6,0.7-3.5,0.4-5-0.3C78.8,81.5,80,84.2,81,84.2z"/>
		<path class="st11" d="M77.9,127.7c0,0.9-0.4,1.6-0.9,1.6s-0.8-0.8-0.8-1.7c0-0.9,0.4-1.6,0.9-1.6S77.9,126.8,77.9,127.7z"/>
		<path class="st12" d="M63.1,130.1c0,0,18.9,6,36.6,1.1c0,0,0.9,3.1,1.3,9.8c0,0-17.1,12.3-38.8,0.5
			C62.3,141.6,62,136.7,63.1,130.1z"/>
		<g>
			<path class="st13" d="M68.1,134.9c0,0,4.4,1.3,9.6,1.6C77.7,136.6,70.4,138.6,68.1,134.9z"/>
			<path class="st13" d="M72.7,139.3c0,0,6.8,1.8,14.4-1.1C87.1,138.2,79.4,144.6,72.7,139.3z"/>
		</g>
		<path class="st13" d="M77.9,143.4c-5.7,1.9-10-1.4-10-1.4c1.3-1,1.1-6.5,1.1-10.2l0-0.2c-3.7-0.7-5.9-1.4-5.9-1.4
			c-1.1,6.5-0.9,11.4-0.9,11.4c21.6,11.8,38.8-0.5,38.8-0.5c-0.2-3.6-0.6-6.2-0.9-7.8l-13,2.5C87.2,135.8,83.6,141.5,77.9,143.4z"/>
		<path class="st3" d="M77.4,51.1c0,0,0.1,0.2,0.4,0.5c0.2,0.3,0.5,0.8,0.8,1.5c0.1,0.3,0.2,0.7,0.2,1.1c0,0.4-0.1,0.8-0.2,1.3
			c-0.2,0.8-0.5,1.7-0.9,2.5c-0.3,0.8-0.7,1.6-1,2.4c-0.1,0.2-0.1,0.3-0.1,0.5c0,0.1,0,0.1,0,0.1c0,0,0-0.1-0.1-0.1l0.1,0.1
			c0.1,0.1,0.4,0.3,0.6,0.4c0.5,0.2,1,0.3,1.3,0.3c0.3,0,0.5,0,0.5,0c0.3,0,0.5,0.2,0.5,0.5c0,0.2-0.2,0.4-0.4,0.5h0
			c0,0-0.2,0.1-0.7,0.1c-0.4,0-1.1,0-1.8-0.3c-0.4-0.2-0.7-0.4-1.1-0.8l-0.1-0.1c-0.1-0.1-0.2-0.3-0.2-0.4c0-0.2,0-0.4,0-0.5
			c0.1-0.3,0.1-0.5,0.2-0.7c0.3-0.8,0.8-1.6,1.2-2.4c0.4-0.8,0.8-1.6,1-2.3c0.1-0.2,0.1-0.4,0.2-0.5c0-0.1,0-0.2,0.1-0.3l0-0.2
			c0-0.3,0-0.7-0.1-1c-0.1-0.6-0.4-1.1-0.6-1.4c-0.2-0.3-0.3-0.5-0.3-0.5c-0.1-0.1,0-0.2,0-0.3C77.2,51,77.3,51,77.4,51.1L77.4,51.1
			z"/>
		<g>
			<g>
				<path class="st14" d="M82.1,55.6c0,0.8,0.5,1.4,1.2,1.4c0.6,0,1.1-0.6,1.1-1.4c0-0.8-0.5-1.4-1.2-1.4
					C82.6,54.2,82.1,54.8,82.1,55.6z"/>
				<path class="st14" d="M86.2,56.3c-0.3-1.2-1.4-2.2-3-2.3c-0.9-0.1-1.7,1-1.5,1.5c0,0,0.6-0.7,1.6-0.6
					C84.3,55.1,86.2,56.3,86.2,56.3z"/>
			</g>
		</g>
		<g>
			<g>
				<path class="st14" d="M72.8,55.1c0,0.7,0.5,1.3,1.1,1.3c0.6,0,1-0.6,1-1.3c0-0.7-0.5-1.3-1.1-1.3C73.2,53.8,72.8,54.3,72.8,55.1
					z"/>
				<path class="st14" d="M76.3,55.8c-0.1-1.1-1.2-2.2-2.4-2.2c-1,0-1.7,1.2-1.5,1.7c0,0,0.5-0.9,1.6-0.8
					C75.1,54.6,76.3,55.8,76.3,55.8z"/>
			</g>
		</g>
		<path class="st12" d="M73.6,76.5c0,0-5.4,7.7-5.8,25.2s-0.1,37.9-1.1,38.3s-4.8-1.3-5.7-2.7c-0.9-1.4,0-26.3-0.7-35.8
			s0.1-20.1,1.3-21.5C62.7,78.7,72.8,75.4,73.6,76.5z"/>
		<path class="st12" d="M95,77.1c0,0-5.8,10.4-7.5,23s-2.1,39-0.4,40c1.7,1,11.7-0.9,14.1-3.1c0,0-1.7-13.8-1.7-17.7
			c0-1.7,1.4-5.1,2.4-7.8c0,0-3.5-5.6-2.5-12c2.3-14.6,8.2-16.8,8.2-16.8C105,79.7,96.4,76.2,95,77.1z"/>
		<path class="st13" d="M101.1,136.9c0,0-1.7-13.8-1.7-17.7c0-1.7,1.4-5.1,2.4-7.8c0,0-3.5-5.6-2.5-12c2.3-14.6,8.2-16.8,8.2-16.8
			c-0.5-0.6-1.3-1.2-2.2-1.9c-1.5,1.4-3.7,4.2-6,9.8c-3.6,9-7.8,15.6-12.6,16.7c-1,13.4-1.1,31.9,0.3,32.7
			C88.7,141,98.7,139.2,101.1,136.9z"/>
		<path class="st6" d="M88.9,140.2c-1.7-1-1.1-29.1,0.7-41.5C91,88.7,95.2,80,96.7,77.1c-0.8-0.2-1.5-0.2-1.8,0c0,0-5.8,10.4-7.5,23
			s-2.1,39-0.4,40C87.7,140.6,88.9,140.2,88.9,140.2z"/>
		
			<linearGradient id="SVGID_00000145037401650300724020000013937238025876173235_" gradientUnits="userSpaceOnUse" x1="106.1091" y1="173.4968" x2="106.1091" y2="253.326" gradientTransform="matrix(1 0 0 -1 0 315)">
			<stop  offset="0" style="stop-color:#F9B3AA"/>
			<stop  offset="1" style="stop-color:#F59097"/>
		</linearGradient>
		<path style="fill:url(#SVGID_00000145037401650300724020000013937238025876173235_);" d="M100.3,108.3c1.5,3.8,3.2,6,5.4,8.2
			c0,0-4.2,3.1-7.5,6.8s-8,9.6-9.4,10l4,5.2c0,0,15.2-4.9,20.9-8.4c5.7-3.4,9.2-10,9.6-12.5c0.2-1.4-0.3-6.9-2.9-12.5
			c-2.2-4.7-6.2-10-8.1-13.9C107.6,81.7,97.8,102.1,100.3,108.3z"/>
		
			<linearGradient id="SVGID_00000083085626807941332310000006974501263870224048_" gradientUnits="userSpaceOnUse" x1="74.6529" y1="132.1444" x2="115.2039" y2="189.0148" gradientTransform="matrix(0.9771 -0.2128 -0.2128 -0.9771 41.3968 283.1314)">
			<stop  offset="0" style="stop-color:#F9B3AA"/>
			<stop  offset="1" style="stop-color:#F59097"/>
		</linearGradient>
		<path style="fill:url(#SVGID_00000083085626807941332310000006974501263870224048_);" d="M82.3,142.5c1.6-1.3,2.9-2.5,2.6-2.8
			c-0.2-0.2-1.2,1-3,2.2c-2.2,1.4-3.7,2.6-4.3,1.7c-0.4-0.6,1.5-1.8,3.3-3.4c1.6-1.3,4.4-3.2,3.9-4.1c-0.4-0.8-4.5-0.4-4.4-2.1
			c0.1-1.2,6.1,0.7,8.7-0.8c1.5-0.9,5.4,3.5,4.5,4.6c-1.8,1.6-3.6,3.6-5.7,5.6c-1.6,1.6-4.6,3.1-5.1,2.5c-0.4-0.6,1.3-1.6,2.4-2.5
			s1.1-1.1,0.9-1.4s-1.2,1-3.1,2.2c-2.8,1.8-3.6,2.2-4.2,1.3C78.5,144.9,80.4,144.1,82.3,142.5z"/>
		<path class="st5" d="M111.5,227.8c-2.1-6.3,10.2-11.2,11-20.6c0,0,2.4,6.7-1.1,11.3C118,223.1,112.5,224.1,111.5,227.8z"/>
		<path class="st4" d="M67.9,183.9c5.9,8.8,13.1,5.6,19.6,12.2c0,0-4.2-1.7-9.7-2.2C70.7,193.1,67.7,188,67.9,183.9z"/>
		<path class="st4" d="M78.8,196.6c3.4-1.1,6-0.2,9.1,2.2C87.9,198.9,81.4,200.1,78.8,196.6z"/>
		<path class="st5" d="M110.2,162.4c2,2.2,2,4.6,0.8,7.9C111,170.3,108,165.7,110.2,162.4z"/>
		<path class="st4" d="M98,232c-3.9-4.5-5.2-13.2-1-13.4c4.1-0.2,4-4.4,1.7-6.8c0,0,0.6,3.3-1.5,3.2c-3.4-0.1-6.3,3.7-5.2,9.3
			C93,229.3,98,232,98,232z"/>
		<g>
			<path class="st5" d="M107.7,215.3c0.6-0.5,1.2-1,1.7-1.6c0.5-0.6,1-1.2,1.5-1.8c0.4-0.6,0.9-1.3,1.2-1.9c0.4-0.7,0.7-1.4,1.1-2.1
				c0.6-1.4,1.2-2.8,1.6-4.3c0.2-0.7,0.4-1.5,0.5-2.2c0.1-0.7,0.2-1.5,0.2-2.3c0.1-1.5,0.2-3.1,0.1-4.6c0-0.8-0.1-1.5-0.3-2.2
				c-0.2-0.7-0.4-1.4-0.8-1.7c-0.3-0.4-1-0.4-1.5-0.2c-0.5,0.2-0.9,0.8-1,1.5c-0.2,0.7-0.2,1.4,0,2.1c0.2,0.7,0.6,1.3,1.3,1.1l0,0h0
				c0.1,0,0.3-0.1,0.4-0.3c0.1-0.2,0.2-0.4,0.2-0.6c0-0.2,0-0.5-0.1-0.7c-0.1-0.2-0.3-0.3-0.6-0.3c0.2-0.1,0.5,0,0.7,0.2
				c0.2,0.2,0.2,0.5,0.2,0.8c0,0.3,0,0.5-0.1,0.8c0,0.1-0.1,0.3-0.2,0.4c-0.1,0.1-0.2,0.2-0.5,0.3l0.1,0c-0.4,0.2-1,0.1-1.4-0.2
				c-0.4-0.3-0.6-0.7-0.8-1.1c-0.3-0.8-0.4-1.7-0.2-2.6c0.1-0.8,0.5-1.8,1.5-2.4c0.2-0.1,0.5-0.2,0.7-0.3c0.2-0.1,0.6-0.1,0.8-0.1
				c0.5,0,1.1,0.2,1.5,0.6c0.8,0.7,1.1,1.6,1.3,2.4c0.2,0.8,0.3,1.6,0.4,2.4c0.1,1.6,0,3.2-0.1,4.8c-0.1,0.8-0.1,1.6-0.3,2.4
				c-0.1,0.8-0.4,1.6-0.6,2.4c-0.5,1.5-1.1,3-1.9,4.4c-0.8,1.4-1.7,2.7-2.8,3.9c-0.5,0.6-1.1,1.1-1.7,1.7c-0.3,0.3-0.6,0.5-1,0.7
				C108.4,214.9,108.1,215.1,107.7,215.3z"/>
			<path class="st5" d="M96.2,201.3c0,0,0.1,0.1,0.2,0.1c0.1,0.1,0.4,0,0.4-0.2c0.1-0.2-0.1-0.5-0.4-0.7c-0.3-0.2-0.7-0.2-1.2-0.2
				c-0.2,0-0.4,0.1-0.5,0.2c-0.1,0.1-0.1,0.2-0.1,0.4c0,0.3,0.4,0.8,0.8,1.1l0.4,0.3l0.4,0.2c0.3,0.1,0.6,0.3,0.9,0.4
				c0.6,0.3,1.2,0.6,1.9,0.9c0.6,0.3,1.2,0.7,1.9,1.1c0.6,0.4,1.2,0.8,1.7,1.3c0.5,0.4,1,0.9,1.4,1.4c0.2,0.3,0.4,0.5,0.5,0.8
				c0.1,0.3,0.3,0.5,0.4,0.8c0.2,0.5,0.4,1,0.5,1.4c0.1,0.4,0.1,0.8,0.1,1.1c0,0.6-0.1,1-0.1,1s-0.1-0.3-0.2-0.9
				c-0.1-0.3-0.2-0.6-0.4-1c-0.1-0.2-0.2-0.4-0.3-0.6c-0.1-0.2-0.2-0.4-0.4-0.6c-0.1-0.2-0.3-0.4-0.5-0.6c-0.2-0.2-0.4-0.4-0.6-0.6
				c-0.4-0.4-0.9-0.8-1.4-1.1c-0.5-0.4-1.1-0.7-1.6-1.1c-0.6-0.4-1.2-0.7-1.8-1c-0.6-0.3-1.2-0.7-1.9-1c-0.3-0.2-0.6-0.3-0.9-0.6
				l-0.5-0.3l-0.4-0.3c-0.6-0.5-1.1-1.2-1.1-2.1c0-0.4,0.2-0.9,0.6-1.2c0.4-0.2,0.8-0.3,1.1-0.3c0.6,0.1,1.2,0.3,1.5,0.6
				c0.4,0.4,0.5,0.9,0.2,1.3c-0.1,0.2-0.3,0.3-0.4,0.3c-0.1,0-0.2-0.1-0.3-0.1C96.3,201.4,96.2,201.3,96.2,201.3z"/>
			<path class="st5" d="M100.9,224.5c0,0,0.1,0,0.2-0.2s0.1-0.4,0-0.6c-0.1-0.3-0.3-0.6-0.6-0.8c-0.3-0.2-0.5-0.1-0.8,0.3
				c0,0-0.1,0.1-0.1,0.1l-0.1,0.2c0,0.1,0,0.2-0.1,0.3c0,0.2,0,0.5,0,0.8c0,0.6,0.2,1.1,0.5,1.7c0.2,0.6,0.5,1.2,0.9,1.7
				c0.4,0.5,0.9,1,1.4,1.5c1,1,2.1,1.9,3.1,2.8c1,1,1.9,2,2.4,3.1c0.5,1.1,0.6,2,0.6,2.7c0,0.3,0,0.6-0.1,0.8c0,0.2,0,0.3,0,0.3
				s0-0.4-0.2-1c-0.2-0.6-0.5-1.4-1.1-2.3c-0.6-0.8-1.5-1.7-2.5-2.5c-0.5-0.4-1.1-0.9-1.6-1.3c-0.5-0.5-1.1-0.9-1.7-1.5
				c-0.5-0.5-1.1-1.1-1.5-1.8c-0.4-0.7-0.8-1.4-1-2.1c-0.2-0.7-0.3-1.4-0.3-2.1c0-0.4,0-0.7,0.1-1c0-0.1,0.1-0.4,0.2-0.5l0.1-0.2
				c0.1-0.1,0.1-0.1,0.2-0.2c0.2-0.2,0.5-0.5,0.9-0.5c0.4-0.1,0.7,0.1,0.9,0.3c0.4,0.4,0.5,0.8,0.5,1.1c0,0.4-0.1,0.6-0.2,0.8
				C101,224.5,100.9,224.5,100.9,224.5z"/>
			<path class="st5" d="M108,206.2c0,0,0-0.6-0.2-1.6c-0.1-1-0.5-2.4-1.1-4c-0.3-0.8-0.8-1.6-1.3-2.4c-0.5-0.8-1.2-1.6-1.9-2.3
				c-0.8-0.8-1.6-1.4-2.5-2.1c-0.9-0.7-1.9-1.4-2.8-2.1c-0.9-0.7-1.9-1.5-2.7-2.4c-0.2-0.2-0.4-0.4-0.6-0.7
				c-0.2-0.2-0.3-0.4-0.5-0.7c-0.4-0.5-0.6-1-0.9-1.5c-1.1-2-1.5-4.1-1.8-5.9c-0.2-1.8-0.2-3.2-0.1-4.3c0-0.5,0.1-0.9,0.1-1.2
				c0-0.3,0-0.4,0-0.4s0.1,0.6,0.2,1.6c0.1,1,0.3,2.4,0.7,4.1s1,3.6,2.1,5.4c0.3,0.4,0.6,0.9,0.9,1.3c0.2,0.2,0.4,0.4,0.5,0.6
				c0.1,0.2,0.4,0.4,0.5,0.6c0.8,0.8,1.6,1.5,2.5,2.2c0.9,0.7,1.9,1.4,2.8,2.1s1.8,1.5,2.6,2.3c0.8,0.9,1.5,1.7,2,2.6
				c0.5,0.9,0.9,1.8,1.1,2.7c0.5,1.7,0.6,3.2,0.6,4.2C108.1,205.6,108,206.2,108,206.2z"/>
			<path class="st5" d="M88.7,177.6c0,0-0.1-0.1-0.3-0.4c-0.2-0.2-0.4-0.6-0.6-1.1c-0.2-0.5-0.4-1-0.5-1.6s-0.2-1.3-0.2-2
				c0-1.3,0.3-2.7,0.6-3.6c0.3-0.9,0.7-1.5,0.7-1.5s0.1,0.7,0.1,1.6c0,1,0,2.2,0,3.5c0,0.6,0,1.2,0,1.8c0,0.3,0,0.6,0,0.8
				c0,0.3,0,0.5,0,0.8c0,0.5,0,0.9,0,1.2C88.7,177.4,88.7,177.6,88.7,177.6z"/>
			<path class="st5" d="M110.4,200.5c0,0,0.1,0.1,0.2,0.4c0.2,0.2,0.3,0.6,0.5,1.1c0.1,0.2,0.2,0.5,0.2,0.8c0.1,0.3,0.1,0.6,0.1,0.9
				c0.1,0.6,0,1.3,0,2c-0.2,1.4-0.7,2.6-1.2,3.5c-0.5,0.9-1,1.4-1,1.4s0.1-0.7,0.2-1.6c0.1-1,0.3-2.2,0.5-3.4
				c0.1-0.6,0.2-1.2,0.2-1.8c0-0.3,0.1-0.6,0.1-0.8c0-0.3,0-0.5,0.1-0.8s0-0.4,0-0.6c0-0.2,0-0.4,0-0.5
				C110.4,200.7,110.4,200.5,110.4,200.5z"/>
			<path class="st5" d="M67.6,173.5c0,0,0.1,0.1,0.2,0.4c0.1,0.3,0.3,0.7,0.6,1.2c0.1,0.2,0.3,0.5,0.5,0.8c0.2,0.3,0.4,0.6,0.6,0.9
				c0.5,0.6,1.1,1.3,1.8,2c0.7,0.7,1.5,1.4,2.4,2c0.9,0.7,1.9,1.3,3,1.9c2.1,1.2,4.5,2.4,6.9,3.6c2.4,1.2,4.8,2.4,7,3.7
				c2.2,1.3,4.1,2.9,5.4,4.4c1.4,1.5,2.3,2.9,3,3.8c0.7,1,1,1.5,1,1.5s-0.5-0.5-1.3-1.3c-0.8-0.9-2-2.1-3.4-3.4
				c-0.7-0.7-1.5-1.3-2.5-2c-0.9-0.7-1.9-1.2-3-1.8c-2.2-1.1-4.6-2.3-7-3.5c-1.2-0.6-2.4-1.2-3.5-1.9c-1.2-0.6-2.3-1.3-3.4-2
				c-1.1-0.7-2.1-1.4-3-2.2c-0.5-0.4-0.9-0.8-1.3-1.1c-0.4-0.4-0.8-0.8-1.1-1.2c-0.7-0.8-1.2-1.6-1.6-2.3c-0.2-0.4-0.4-0.7-0.5-1
				c-0.1-0.3-0.2-0.6-0.4-0.9c-0.2-0.5-0.3-1-0.4-1.3C67.6,173.6,67.6,173.5,67.6,173.5z"/>
			<path class="st5" d="M70.6,164.3c0,0,0,0.3,0,0.8s0.1,1.1,0.2,1.9s0.3,1.7,0.5,2.7c0.1,0.5,0.3,1,0.4,1.5
				c0.1,0.2,0.1,0.5,0.2,0.8c0.1,0.2,0.2,0.5,0.3,0.7c0.2,0.5,0.4,1,0.6,1.4c0.2,0.5,0.4,0.9,0.7,1.4c0.2,0.4,0.5,0.8,0.7,1.2
				c0.2,0.4,0.5,0.7,0.7,1c0.2,0.3,0.5,0.6,0.7,0.8c0.2,0.2,0.4,0.4,0.6,0.6c0.4,0.3,0.6,0.5,0.6,0.5s-0.1,0-0.2-0.1
				c-0.1,0-0.3-0.1-0.5-0.2c-0.2-0.1-0.5-0.2-0.8-0.4c-0.3-0.2-0.6-0.4-1-0.7c-0.7-0.5-1.4-1.3-2-2.1c-0.6-0.9-1.1-1.9-1.5-2.9
				c-0.1-0.3-0.2-0.6-0.3-0.8c-0.1-0.3-0.1-0.5-0.2-0.8c-0.1-0.5-0.2-1.1-0.3-1.6c-0.1-1-0.2-2-0.1-2.9s0.2-1.5,0.4-2
				c0.1-0.2,0.2-0.4,0.2-0.5C70.5,164.4,70.6,164.3,70.6,164.3z"/>
		</g>
		<path class="st3" d="M120.4,105.2c-2.2-4.7-6.2-10-8.1-13.9c0-0.1-0.1-0.1-0.1-0.2c-1.3-3.9-3.1-6.5-5-8.3c1.2,1.9,2.7,6,3.9,8.8
			s5.5,9.1,7.5,13.5c2.1,4.4,3.5,10,3.1,12.5c-0.4,2.5-2.8,7.8-6.4,10.6c-5.2,3.9-20.5,6.5-22.2,10.3l0,0c2.1-0.7,15.3-5.1,20.6-8.3
			c5.7-3.4,9.2-10,9.6-12.5C123.5,116.3,123.1,110.8,120.4,105.2z"/>
		<path class="st13" d="M60.2,100.7c0.7,9.4-0.1,34.3,0.7,35.8c0.9,1.4,4.7,3.1,5.7,2.7c0.9-0.4,0.8-17.7,1-34.1
			c-3.7-1-7-4.8-7.7-14.2C59.9,94,60,97.4,60.2,100.7z"/>
		<path class="st3" d="M31.5,96.4c-0.5,1.5-2,3.6-4.6,5.2c0.6,1,1.9,3,3.4,5.2c4.6-2.9,6-6.2,6.3-7.3C34.4,98.4,32.6,97.3,31.5,96.4
			z"/>
		<path class="st6" d="M26.5,100.9c2.6-1.5,4-3.6,4.4-5c0,0,2,1.1,4.5,2.8c0,0-0.8,3.8-6.1,7.1C29.2,105.7,26.7,102.4,26.5,100.9z"
			/>
		<path class="st4" d="M26.5,100.9c0.2,1.5,2.8,4.8,2.8,4.8c0.9-0.6,1.7-1.1,2.4-1.7c-1.6-1.8-2.8-3.6-3.3-4.4
			C27.8,100,27.2,100.5,26.5,100.9z"/>
		<path class="st3" d="M89.2,133.2c-0.2,0.1-0.5,0.2-0.8,0.3c2,3.8,3.9,5.3,4.1,5.4c0.4-0.4,0.8-0.8,1.2-1.2
			C94.7,136.7,90.8,132.3,89.2,133.2z"/>
		<path class="st6" d="M93.2,138.5c0,0-2.1-1.5-4.2-5.5c0,0,1.8-2,4-4.1c0,0,1.7,4.1,5.6,7.8C98.7,136.7,94.8,138.6,93.2,138.5z"/>
		<path class="st4" d="M91.6,136.9c1,1.2,1.7,1.7,1.7,1.7c1.6,0.1,5.5-1.8,5.5-1.8c-0.8-0.8-1.5-1.5-2.1-2.3
			C94.3,135.9,92.4,136.6,91.6,136.9z"/>
		<path class="st0" d="M91.8,34c0.7,0.7,1.3,1.4,1.6,2.4c0.3,0.8,0.1,1.7,0.3,2.5c0.1,0.2,0.4,0.2,0.5,0.1c0.6-0.8,0.2-2.2-0.1-3
			c-0.4-1-1.1-1.8-2-2.2C91.8,33.6,91.6,33.8,91.8,34L91.8,34z"/>
		<g>
			<path class="st7" d="M72.3,40.3c2-1.2,3.8-2.6,6.2-2.4c2.1,0.2,3.7,1.2,4.9,2.9c0.2,0.3,0.7-0.1,0.5-0.4
				c-2.9-4.4-8.4-3.6-11.8-0.3C72,40.2,72.2,40.4,72.3,40.3L72.3,40.3z"/>
			<path class="st7" d="M81.9,36.9c1,0.1,1.8,0.8,2.5,1.4c0.8,0.7,1.1,1.4,1.5,2.3c0.1,0.3,0.5,0.2,0.5-0.1c0.1-1.1-0.8-2.1-1.6-2.7
				c-0.8-0.7-1.8-1.4-2.9-1.4C81.7,36.5,81.6,36.9,81.9,36.9L81.9,36.9z"/>
		</g>
		<path class="st3" d="M105.8,113.8c-3.5-4.2-4.6-9.8-4.6-9.8c-2.3-12.4,6-21.3,6-21.3l0,0c-1.2,0.7-6.1,4.1-7.9,16.7
			c-0.9,6,0.9,11.5,6.3,17.1c3.3-2.5,6.3-2.3,6.3-2.3C109.2,113,105.8,113.8,105.8,113.8z"/>
		<path class="st6" d="M71.7,76.4c-1.5,2.9-4.7,10.6-5,23.8c-0.4,17.5-0.1,37.9-1.1,38.3c-0.8,0.3-3.2-0.6-4.7-1.7
			c0,0.3,0.1,0.5,0.1,0.6c0.9,1.4,4.7,3.1,5.7,2.7c1-0.4,0.7-20.8,1.1-38.3c0.4-17.5,5.8-25.2,5.8-25.2
			C73.4,76.2,72.7,76.2,71.7,76.4z"/>
		<g>
			<path class="st17" d="M76,65c0,0,3.4,0.5,8.3-1.7c0,0-0.4,4.2-3.4,4.7C77.7,68.7,76,65,76,65z"/>
			<path class="st18" d="M77.5,65.4c1.3,0.1,3.5-0.2,6-1.3c0,0-0.7,1.4-2.9,2C78.5,66.8,77.5,65.4,77.5,65.4z"/>
		</g>
		<g>
			<g>
				<path class="st5" d="M93.7,210.9h-4.1c-0.3,0-0.5-0.2-0.5-0.5c0-0.3,0.2-0.5,0.5-0.5h4.1c0.3,0,0.5,0.2,0.5,0.5
					C94.2,210.6,94,210.9,93.7,210.9z"/>
				<path class="st5" d="M91.6,212.9c-0.3,0-0.5-0.2-0.5-0.5v-4.1c0-0.3,0.2-0.5,0.5-0.5s0.5,0.2,0.5,0.5v4.1
					C92.1,212.7,91.9,212.9,91.6,212.9z"/>
			</g>
			<g>
				<path class="st5" d="M119.9,231.6h-3.3c-0.3,0-0.5-0.2-0.5-0.5c0-0.3,0.2-0.5,0.5-0.5h3.3c0.3,0,0.5,0.2,0.5,0.5
					C120.3,231.4,120.1,231.6,119.9,231.6z"/>
				<path class="st5" d="M118.2,233.3c-0.3,0-0.5-0.2-0.5-0.5v-3.3c0-0.3,0.2-0.5,0.5-0.5c0.3,0,0.5,0.2,0.5,0.5v3.3
					C118.7,233.1,118.5,233.3,118.2,233.3z"/>
			</g>
			<g>
				<path class="st5" d="M63.5,182.8h-3.3c-0.3,0-0.5-0.2-0.5-0.5c0-0.3,0.2-0.5,0.5-0.5h3.3c0.3,0,0.5,0.2,0.5,0.5
					C63.9,182.6,63.7,182.8,63.5,182.8z"/>
				<path class="st5" d="M61.8,184.5c-0.3,0-0.5-0.2-0.5-0.5v-3.3c0-0.3,0.2-0.5,0.5-0.5c0.3,0,0.5,0.2,0.5,0.5v3.3
					C62.3,184.2,62.1,184.5,61.8,184.5z"/>
			</g>
			<path class="st5" d="M115,175.7c-1.1,0-2-0.9-2-2s0.9-2,2-2c1.1,0,2,0.9,2,2C117,174.8,116.1,175.7,115,175.7z M115,172.6
				c-0.6,0-1.1,0.5-1.1,1.1c0,0.6,0.5,1.1,1.1,1.1s1.1-0.5,1.1-1.1C116.1,173.1,115.6,172.6,115,172.6z"/>
			<path class="st5" d="M79.6,207.4c-0.9,0-1.7-0.8-1.7-1.7s0.8-1.7,1.7-1.7s1.7,0.8,1.7,1.7C81.3,206.6,80.5,207.4,79.6,207.4z
				 M79.6,204.9c-0.4,0-0.8,0.4-0.8,0.8c0,0.4,0.4,0.8,0.8,0.8c0.4,0,0.8-0.4,0.8-0.8C80.4,205.3,80,204.9,79.6,204.9z"/>
			<circle class="st5" cx="87.3" cy="220.5" r="0.8"/>
			<circle class="st5" cx="123.9" cy="180" r="0.8"/>
			<circle class="st5" cx="126.6" cy="222.7" r="0.8"/>
			<circle class="st5" cx="115.3" cy="160" r="0.8"/>
			<circle class="st5" cx="72.3" cy="198.2" r="0.8"/>
			<circle class="st5" cx="58.3" cy="171" r="0.8"/>
		</g>
	</g>
	<g>
		<path class="st19" d="M113.6,262.2c-0.6-1.5-2.7-2.1-3.1-2.9c-0.4-0.7-0.5-3.8-0.3-4.7h-4.7c0.3,0.9,0.2,4-0.3,4.7
			c-0.4,0.7-2.5,1.4-3.1,2.9c-0.8,1.9,0.5,18.7,1.3,19.8c0.7,1,2.7,1.4,4.5,1.4s3.7-0.4,4.4-1.4
			C113.1,280.9,114.4,264.1,113.6,262.2z"/>
		<path class="st20" d="M112.3,282c0.8-1,2.1-17.9,1.3-19.8c-0.6-1.5-2.7-2.1-3.1-2.9c-0.4-0.7-0.5-3.8-0.3-4.7h-4.7
			c0.1,0.2,0.1,0.6,0.1,1.1c0.7,0,2.5,0,2.7,0.3c0.3,0.4,0.1,3.2,0.2,3.9c0.1,0.6,1.2,1.3,1.2,2.3c0.1,1-0.3,19-0.6,19.7
			c-0.4,0.8-3.7,1-5.4,0.4c0.9,0.7,2.6,1,4.1,1C109.7,283.3,111.6,283,112.3,282z"/>
		<path class="st19" d="M111.2,254.6c-0.5,0.4-6.5,0.5-6.8-0.1c-0.3-0.6-0.5-4.1,0-4.4c0.6-0.5,6.6-0.2,7,0.3
			C111.8,250.9,111.7,254.2,111.2,254.6z"/>
		<path class="st20" d="M111.4,250.4c-0.2-0.2-1-0.3-2.1-0.4c0,0,0,0,0,0c0.4,0.5,0.3,3.8-0.2,4.2c-0.4,0.3-2.8,0.4-4.7,0.3
			c0,0,0,0,0,0c0.3,0.6,6.2,0.5,6.8,0.1C111.7,254.2,111.8,250.9,111.4,250.4z"/>
		<path class="st21" d="M107.9,252.6c-0.2,0.2-2.9,0.2-3,0c-0.1-0.3-0.2-1.8,0-2c0.3-0.2,2.9-0.1,3.1,0.1
			C108.2,251,108.1,252.5,107.9,252.6z"/>
		<path class="st21" d="M103.2,270c-0.2-4.4-0.3-7.9,1.1-8.1c1.7-0.2,1.8,6.3,1.9,8c0.1,5.5-0.8,7.1-1.5,7
			C103.3,276.7,103.4,272.7,103.2,270z"/>
		<path class="st21" d="M104,279.6c-0.1-1,0-1.8,0.8-1.9c1,0,0.9,1.5,0.9,1.9c0,1.3-0.4,1.6-0.9,1.6
			C104.1,281.1,104.1,280.2,104,279.6z"/>
	</g>
</g>
</svg>
